<svg version="1.0" xmlns="http://www.w3.org/2000/svg" width="933.33" height="933.33" viewBox="0 0 700 700" preserveAspectRatio="xMidYMid meet"><g transform="matrix(.1 0 0 -.1 0 700)" fill="#000000" stroke="none"><path d="M4496 5639c-103-25-203-78-248-132-65-78-81-128-57-180 9-21-2-76-65-328-131-530-271-992-422-1399-52-140-97-262-100-270-6-17-145 235-222 404-30 66-116 278-192 471-214 545-303 755-435 1031-40 83-75 168-79 187-17 90-97 132-246 131-156 0-293-60-345-149-37-62-73-177-91-285-20-116-14-300 16-505 47-323 58-503 70-1105 5-256 16-588 25-739 8-150 19-421 25-601l12-328-26-39c-33-51-40-85-26-129 14-42 118-148 165-169 77-33 205-27 321 16 62 23 146 95 164 140 17 40 8 573-19 1194-27 610-36 942-24 930 6-5 39-80 73-165 81-199 170-382 261-540 107-185 154-292 229-520 37-113 69-214 71-225s-5-35-15-54c-35-65 5-132 102-171 57-22 202-8 300 30 100 38 198 103 229 149 24 35 31 103 14 130-6 9 0 40 16 85 32 94 64 223 108 431 19 94 49 220 66 280 35 122 150 458 155 452 2-2 11-68 21-148 15-124 18-240 18-824 0-691 3-759 40-919 8-33 19-93 25-132 11-71 11-72-19-120-38-60-39-94-3-134 33-37 79-49 187-50 191 0 347 85 411 225 47 102 44 208-17 527-44 233-52 370-37 643 21 384 16 692-17 1055-29 303-30 337-30 865 0 574-2 597-46 740-14 47-19 86-17 147l3 83-35 17c-48 24-189 23-294-3z"/></g></svg>