<svg xmlns="http://www.w3.org/2000/svg"><style>:root svg:not(:target){display:none}</style><svg viewBox="0 0 47 27" id="banknote"><path d="M43.07 0H3.93A3.84 3.84 0 0 0 0 3.86v19.28A3.84 3.84 0 0 0 3.93 27h39.14A3.84 3.84 0 0 0 47 23.14V3.86A3.97 3.97 0 0 0 43.07 0ZM3.03 24.73V2.77h40.54v21.96H3.03Z"></path><path d="M6.96 20.87h32.68V6.63H6.96v14.24ZM23.5 8.5a5.33 5.33 0 0 1 5.35 5.24 5.33 5.33 0 0 1-5.35 5.24 5.33 5.33 0 0 1-5.35-5.24A5.27 5.27 0 0 1 23.5 8.5Z"></path></svg><svg viewBox="0 0 21 18" id="cart"><path d="M20.19 6.86h-3.55L13.19.38c-.2-.38-.61-.48-1.02-.28-.4.19-.5.57-.3.95l3.14 5.8H5.78l3.15-5.8c.2-.38 0-.76-.3-.95A.82.82 0 0 0 7.6.38L4.16 6.86H.8c-.4 0-.81.28-.81.76 0 .38.3.76.81.76H1l.92 2.86c-.2.1-.3.28-.3.57 0 .38.3.67.7.67L4.06 18h12.88l1.73-5.52c.4 0 .7-.29.7-.67 0-.2-.1-.48-.3-.57L20 8.38h.2c.4 0 .81-.28.81-.76s-.4-.76-.81-.76Zm-4.57 9.62H5.07l-1.21-4.1h13.08l-1.32 4.1Zm1.63-5.53H3.35L2.54 8.3h15.52l-.81 2.66Z"></path></svg><svg viewBox="0 0 33 38" id="eco"><path d="M16.5 38C25.57 38 33 30.65 33 21.66A16.4 16.4 0 0 0 16.5 38ZM4.74 16.65a4.5 4.5 0 0 0 7.12 3.68v.3c0 2.56 2.06 4.5 4.54 4.5a4.49 4.49 0 0 0 4.53-4.5v-.3c.73.5 1.65.82 2.58.82a4.49 4.49 0 0 0 4.54-4.5 4.43 4.43 0 0 0-2.58-4.09 4.43 4.43 0 0 0 2.58-4.08 4.54 4.54 0 0 0-7.12-3.68v-.3c0-2.56-2.06-4.5-4.53-4.5a4.49 4.49 0 0 0-4.54 4.5v.3a4.54 4.54 0 0 0-2.58-.82 4.49 4.49 0 0 0-4.54 4.5 4.43 4.43 0 0 0 2.58 4.08 4.61 4.61 0 0 0-2.58 4.1ZM16.5 7.97a4.49 4.49 0 1 1 0 8.99 4.49 4.49 0 1 1 0-9ZM0 21.66C0 30.65 7.42 38 16.5 38A16.4 16.4 0 0 0 0 21.66Z"></path></svg><svg viewBox="0 0 33 32" id="gift"><path d="M3.03 32h12.61V18.27H3.03V32ZM31.39 8.7h-7.37c.5-.3 1-.5 1.41-.8 1.62-1.09 2.42-2.57 2.42-3.95 0-1.18-.6-2.17-1.41-2.86A4.72 4.72 0 0 0 23.41 0c-1.2 0-2.42.4-3.33 1.09a10.36 10.36 0 0 0-3.43 4.05c0 .1-.1.2-.1.2-.3-.6-.6-1.2-1-1.78a8.5 8.5 0 0 0-2.53-2.47C12 .49 10.9 0 9.69 0S7.37.5 6.46 1.28a4.39 4.39 0 0 0-1.41 3.07c0 .69.2 1.48.6 2.17.6.89 1.41 1.58 2.63 2.17H1.6A1.6 1.6 0 0 0 0 10.27v5.83h15.54V8.7h1.92v7.4H33v-5.83c0-.89-.7-1.58-1.61-1.58ZM8.89 6.41a4.4 4.4 0 0 1-1.22-1.09c-.2-.4-.3-.69-.3-.98 0-.5.2-1 .7-1.49.4-.4 1.01-.69 1.62-.69.7 0 1.41.2 2.02.7a7.6 7.6 0 0 1 2.62 3.15c.3.7.6 1.39.8 2.08-3.12-.3-5.14-.99-6.25-1.68Zm10.59-1.58a6.84 6.84 0 0 1 1.91-1.88c.71-.5 1.42-.69 2.02-.69.6 0 1.11.2 1.52.5.4.3.6.69.6 1.18 0 .5-.3 1.28-1.51 2.07-1.11.8-3.13 1.68-6.16 2.28.3-1.19.91-2.47 1.62-3.46ZM17.46 32h12.61V18.27H17.46V32Z"></path></svg><svg viewBox="0 0 35 34" id="handmade"><path d="M.3 13.95c-.4 2.08-.4 4.16 0 6.24l4.18-3.17-4.17-3.07Z"></path><path d="M24.85 1.59a17.96 17.96 0 0 0-15.58.4l7.64 5.53 7.94-5.93Z"></path><path d="m34.53 13.06-4.9 3.66 5 3.66c.5-2.37.5-4.94-.1-7.32Z"></path><path d="M9.37 32.06a17.84 17.84 0 0 0 16 .1l-8.26-6.04-7.74 5.94Z"></path><path d="M8.05 14.25 1.73 9.7c-.3.7-.61 1.38-.81 2.08l5.4 3.95 1.73-1.48Z"></path><path d="m18.94 24.83 8.46 6.14c.3-.2.61-.4.81-.6.3-.2.61-.49.92-.79l-8.45-6.13-1.74 1.38Z"></path><path d="M11.61 11.58 4.07 6.14c-.5.5-.91 1.09-1.32 1.68l7.03 5.14 1.83-1.38Z"></path><path d="m22.5 22.16 8.26 6.04c.5-.5.92-1.09 1.32-1.68l-7.84-5.74-1.73 1.38Z"></path><path d="M15.18 8.9 7.33 3.18c-.2.1-.4.3-.6.4-.42.3-.82.59-1.13.98l7.84 5.64 1.74-1.28Z"></path><path d="m26.07 19.4 7.13 5.14c.3-.7.61-1.29.92-1.98L27.91 18l-1.84 1.38Z"></path><path d="M26.89 2.67.92 22.37c.2.68.5 1.38.81 2.07l27-20.48a8.84 8.84 0 0 0-1.84-1.29Z"></path><path d="M31.27 6.53a9.4 9.4 0 0 0-.92-1.09L2.85 26.22c.2.5.51.89.82 1.19.1.2.3.4.4.5l27.7-20.78c-.2-.2-.3-.4-.5-.6Z"></path><path d="M32.9 8.9 5.7 29.49c.51.5 1.12 1 1.74 1.39L33.92 10.9c-.3-.7-.61-1.39-1.02-1.98Z"></path></svg><svg viewBox="0 0 34 27" id="heart"><path d="M34 8.45C34 3.79 29.98 0 25.04 0c-3.5 0-6.5 1.94-8.04 4.66A9.12 9.12 0 0 0 8.96 0C4.02 0 0 3.79 0 8.45 0 17.29 15.15 27 17 27c1.96 0 17-9.62 17-18.55Z"></path></svg><svg viewBox="0 0 41 62" id="interior"><path d="M15.5 37.76c-.3.99-.2 2.18 0 3.57.51 2.59 1.74 5.96 2.45 9.64h5.2c.72-3.58 1.94-6.95 2.55-9.64.3-1.39.3-2.68 0-3.57-.3-.9-.92-1.6-2.04-2.29h-6.12c-1.22.7-1.83 1.4-2.04 2.29Z"></path><path d="M27.54 57.63H13.46c-1.32 0-2.34 1-2.34 2.18V62h18.76v-2.19c0-1.19-1.02-2.18-2.34-2.18Z"></path><path d="M34.78 2.29H22.85c0-1.2-1.02-2.19-2.35-2.19s-2.35 1-2.35 2.19H6.22L0 27.62c.82-.5 1.63-1 2.65-1 1.43 0 2.25.8 2.96 1.4.71.6 1.22.8 1.43.8.3 0 .81-.3 1.53-.8.71-.5 1.63-1.4 2.95-1.4 1.33 0 2.25.8 2.96 1.4.72.5 1.23.8 1.53.8.1 0 .3-.1.61-.2.2-.1.51-.4.92-.6.51-.4 1.12-1 2.04-1.2.3-.1.61-.1.92-.1 1.33 0 2.24.8 2.96 1.4.71.5 1.22.8 1.53.8.3 0 .81-.3 1.43-.8.7-.6 1.63-1.4 2.95-1.4 1.43 0 2.25.8 2.96 1.4.3.3.61.5.92.6.2.1.4.2.61.2.3 0 .82-.3 1.43-.9.71-.6 1.63-1.4 2.96-1.4 1.02 0 1.83.5 2.65 1L34.78 2.3Z"></path><path d="M23.97 53.16h-7.04c-.71 0-1.12.5-1.12 1.09 0 .6.5 1.1 1.12 1.1h7.04c.71 0 1.12-.5 1.12-1.1.1-.6-.4-1.1-1.12-1.1Z"></path><path d="M20.5 28.81c-.1 0-.3.1-.61.2-.2.1-.41.3-.61.4v3.68h2.34V29.5c-.5-.4-.92-.7-1.12-.7Z"></path></svg><svg viewBox="0 0 60 61" id="lego"><path d="M0 44.73 27.4 61V37.15L0 20.78v23.95Zm51.3-32.04v2.56c0 1.84-3.5 3.38-7.7 3.38-4.3 0-7.7-1.54-7.7-3.38v-4.2c.3 1.74 3.6 3.18 7.7 3.18 4.3 0 7.7-1.54 7.7-3.38 0-1.84-3.5-3.38-7.7-3.38h-1l-5-2.97v3.18c0 1.84-3.5 3.37-7.7 3.37-2.7 0-5-.61-6.4-1.53-.2-.2-.4-.41-.7-.62-.4-.4-.6-.81-.6-1.22V4.6l-4.8 2.86h-1.1C12 7.46 8.6 9 8.6 10.84c0 1.84 3.5 3.38 7.7 3.38 4.1 0 7.4-1.44 7.7-3.18v4.2c0 1.84-3.5 3.38-7.7 3.38-4.3 0-7.7-1.54-7.7-3.38v-2.46l-6 3.59 27.5 16.37 27.4-16.27-6.2-3.79ZM37.7 23.13c0 1.84-3.5 3.38-7.7 3.38-4.3 0-7.7-1.54-7.7-3.38v-4.2c.3 1.74 3.6 3.18 7.7 3.18s7.4-1.44 7.7-3.18v4.2Zm-5.1 14.23V61L60 44.73V21.08L32.6 37.36Zm-2.7-30.6c4.3 0 7.7-1.54 7.7-3.38C37.6 1.54 34.1 0 29.9 0c-4.3 0-7.7 1.54-7.7 3.38 0 1.84 3.4 3.38 7.7 3.38Z"></path></svg><svg viewBox="0 0 55 23" id="rocket"><path d="M40.95 5.75c-3.64-1-7.89-1.69-12.54-1.69-2.93 0-5.56.2-7.79.6L13.75 0H.1l5.87 6.15h8.49C9.8 7.73 7.58 9.62 7.58 9.62v3.76s2.33 1.89 6.98 3.47h-8.7L0 23h13.65l6.87-4.66a49.05 49.05 0 0 0 20.32-1.09 10.14 10.14 0 0 1-1.92-5.85c.1-1.98.91-3.87 2.03-5.65Z"></path><path d="M44.49 6.74c-1.32 1.59-2.03 3.17-2.03 4.76 0 1.59.71 3.17 2.03 4.76A52.7 52.7 0 0 0 55 11.5s-4.04-2.58-10.51-4.76Z"></path></svg><svg viewBox="0 0 18 18" id="search"><path d="m17.7 16.06-3.48-3.48a7.63 7.63 0 0 0 1.53-4.7c0-4.4-3.48-7.88-7.88-7.88A7.81 7.81 0 0 0 0 7.88c0 4.4 3.48 7.87 7.88 7.87 1.73 0 3.37-.61 4.7-1.53l3.48 3.47c.2.2.4.31.82.31.6 0 1.12-.51 1.12-1.13 0-.2-.1-.5-.3-.81ZM2.24 7.88a5.67 5.67 0 0 1 5.63-5.63 5.67 5.67 0 0 1 5.62 5.63 5.67 5.67 0 0 1-5.63 5.62 5.67 5.67 0 0 1-5.62-5.63Z"></path></svg><svg viewBox="0 0 29 23" fill="none" id="telegram"><path fill-rule="evenodd" clip-rule="evenodd" d="M24.2 3.25c.18.15.27.38.23.6L21.8 19.63a.66.66 0 0 1-1.01.43l-7.88-5.25a.66.66 0 0 1-.15-.95l2.61-3.27-4.36 2.9a.66.66 0 0 1-.65.05L5.1 10.9a.66.66 0 0 1 .08-1.2l18.38-6.57a.66.66 0 0 1 .64.12ZM7.07 10.42l3.53 1.76 7.56-5.04a.66.66 0 0 1 .88.96l-4.8 6 6.43 4.3 2.28-13.65-15.88 5.67Z" fill="#231F20"></path></svg><svg viewBox="0 0 29 23" fill="none" id="vk"><g clip-path="url(#vk_0)"><path d="M1.74 5.43c0-.85.52-1.31 1.55-1.38l3.97.03c.26 0 .44.12.53.37.4 1.26.86 2.35 1.37 3.26.5.91 1.17 1.96 1.99 3.16.07.15.18.22.34.22.13 0 .22-.06.3-.17l.08-.28.02-4.35c0-.3-.07-.5-.22-.6a2.2 2.2 0 0 0-.84-.23c-.32-.05-.48-.24-.48-.55 0-.07 0-.12.02-.16.38-1.09 1.44-1.63 3.2-1.63l1.5-.03c.67 0 1.23.16 1.67.48.45.32.67.82.67 1.51v5.71c.12.08.24.13.34.13.27 0 .5-.16.7-.46 1.95-2.58 3-4.3 3.17-5.18a1.67 1.67 0 0 1 .67-.78c.28-.18.53-.3.74-.37a.56.56 0 0 1 .24-.05h4.13l.26.02c.36 0 .64.16.83.48.07.1.12.2.15.33a2.4 2.4 0 0 1 .06.55v.17a6.1 6.1 0 0 1-.94 2.2c-.5.78-1.15 1.63-1.93 2.53-.79.9-1.27 1.5-1.47 1.79-.16.2-.24.38-.24.55 0 .14.07.29.21.45l3.9 4.63c.2.27.31.56.31.88 0 .39-.16.7-.48.96-.32.25-.7.4-1.14.42l-.45.03h-4.05l-.11.01a.86.86 0 0 1-.1.01c-.4 0-.76-.15-1.1-.47l-2.5-2.97a1.39 1.39 0 0 0-.38-.33l-.28 1.16-.25 1.08-.08.43a1.4 1.4 0 0 1-1.12 1.05l-.37.03h-2.61c-1.48 0-2.95-.64-4.41-1.91a19.3 19.3 0 0 1-3.96-4.94 47.52 47.52 0 0 1-3.28-7.06 1.92 1.92 0 0 1-.13-.73Zm16.01 6.52c-.37 0-.7-.1-1-.3a.9.9 0 0 1-.46-.78V5.08c0-.33-.1-.57-.27-.72-.18-.14-.49-.2-.93-.2l-1.52.04c-.76 0-1.34.13-1.73.38.78.35 1.17.92 1.17 1.7v4.43a1.5 1.5 0 0 1-.53 1.05c-.32.27-.68.41-1.07.41-.53 0-.94-.24-1.22-.73a26.16 26.16 0 0 1-3.1-5.63l-.23-.65-3.55-.03c-.23 0-.36.01-.38.04-.03.02-.04.1-.04.21 0 .15.01.31.05.48l.56 1.4c1.5 3.65 3.11 6.51 4.86 8.61 1.75 2.1 3.47 3.14 5.16 3.14h2.66c.1 0 .19-.03.24-.08a.8.8 0 0 0 .13-.34l.06-.26.5-2.2c.15-.31.27-.51.38-.61.2-.19.42-.28.69-.28.43 0 .86.24 1.3.73l2.27 2.72c.14.21.3.32.45.32h4.4c.53 0 .8-.12.8-.37a.47.47 0 0 0-.08-.26l-3.86-4.55c-.3-.35-.46-.73-.46-1.13 0-.4.14-.79.43-1.16.23-.33.68-.89 1.34-1.67.67-.78 1.25-1.5 1.75-2.19.5-.68.83-1.3.98-1.84l.08-.33a.37.37 0 0 1-.02-.16.6.6 0 0 0-.03-.2h-4.18c-.27.1-.48.26-.64.46l-.16.48c-.44 1.15-1.6 2.94-3.5 5.35-.36.34-.8.5-1.3.5Z" fill="#231F20"></path></g><defs><clipPath id="vk_0"><rect width="28" height="22" fill="white" transform="translate(.74 .1)"></rect></clipPath></defs></svg><svg viewBox="0 0 29 23" fill="none" id="youtube"><path d="m18.6 10.89-5.24-3.5a.65.65 0 0 0-1.02.55v6.98a.65.65 0 0 0 1.02.55l5.23-3.5a.65.65 0 0 0 0-1.08Zm-4.95 2.81V9.16l3.4 2.27-3.4 2.27Zm12.48-8.56a2.4 2.4 0 0 0-1.45-1.64c-3.72-1.43-9.69-1.4-9.94-1.4S8.52 2.06 4.8 3.5a2.4 2.4 0 0 0-1.45 1.64 25.32 25.32 0 0 0-.6 6.3c0 3.25.32 5.22.6 6.29a2.4 2.4 0 0 0 1.45 1.63c3.72 1.43 9.69 1.41 9.94 1.41h.08c.75 0 6.31-.04 9.86-1.4a2.4 2.4 0 0 0 1.45-1.64c.28-1.07.61-3.04.61-6.3s-.33-5.22-.61-6.3ZM24.86 17.4a1.1 1.1 0 0 1-.65.74c-3.5 1.34-9.4 1.32-9.47 1.32-.06 0-5.98.02-9.47-1.32a1.1 1.1 0 0 1-.65-.74c-.26-1-.57-2.85-.57-5.97 0-3.12.3-4.96.57-5.96a1.1 1.1 0 0 1 .65-.75c3.5-1.34 9.4-1.32 9.47-1.32.07 0 5.98-.02 9.47 1.32a1.1 1.1 0 0 1 .65.75c.27 1 .57 2.84.57 5.96s-.3 4.97-.57 5.97Z" fill="#231F20"></path></svg></svg>